<svg width="134" height="20" viewBox="0 0 134 20" fill="none" xmlns="http://www.w3.org/2000/svg">
<path d="M0.924 19V0.539999H7.632C9.64267 0.539999 11.324 0.955999 12.676 1.788C14.028 2.60267 15.042 3.712 15.718 5.116C16.394 6.50267 16.732 8.04533 16.732 9.744C16.732 11.616 16.3593 13.2453 15.614 14.632C14.8687 16.0187 13.8113 17.0933 12.442 17.856C11.09 18.6187 9.48667 19 7.632 19H0.924ZM13.118 9.744C13.118 8.548 12.9013 7.49933 12.468 6.598C12.0347 5.67933 11.4107 4.96867 10.596 4.466C9.78133 3.946 8.79333 3.686 7.632 3.686H4.512V15.854H7.632C8.81067 15.854 9.80733 15.594 10.622 15.074C11.4367 14.5367 12.052 13.8087 12.468 12.89C12.9013 11.954 13.118 10.9053 13.118 9.744ZM26.2953 19.26C25.2033 19.26 24.2153 19.078 23.3313 18.714C22.4473 18.3327 21.6933 17.8213 21.0693 17.18C20.4453 16.5213 19.96 15.776 19.6133 14.944C19.284 14.0947 19.1193 13.202 19.1193 12.266C19.1193 10.966 19.4053 9.77867 19.9773 8.704C20.5667 7.62933 21.3987 6.77133 22.4733 6.13C23.5653 5.47133 24.848 5.142 26.3213 5.142C27.812 5.142 29.086 5.47133 30.1433 6.13C31.2007 6.77133 32.0067 7.62933 32.5613 8.704C33.1333 9.76133 33.4193 10.9053 33.4193 12.136C33.4193 12.344 33.4107 12.5607 33.3933 12.786C33.376 12.994 33.3587 13.1673 33.3413 13.306H22.8113C22.8807 13.9993 23.08 14.606 23.4093 15.126C23.756 15.646 24.1893 16.0447 24.7093 16.322C25.2467 16.582 25.8187 16.712 26.4253 16.712C27.1187 16.712 27.7687 16.5473 28.3753 16.218C28.9993 15.8713 29.424 15.4207 29.6493 14.866L32.6393 15.698C32.31 16.3913 31.8333 17.0067 31.2093 17.544C30.6027 18.0813 29.8833 18.506 29.0513 18.818C28.2193 19.1127 27.3007 19.26 26.2953 19.26ZM22.7333 11.096H29.8573C29.788 10.4027 29.5887 9.80467 29.2593 9.302C28.9473 8.782 28.5313 8.38333 28.0113 8.106C27.4913 7.81133 26.9107 7.664 26.2693 7.664C25.6453 7.664 25.0733 7.81133 24.5533 8.106C24.0507 8.38333 23.6347 8.782 23.3053 9.302C22.9933 9.80467 22.8027 10.4027 22.7333 11.096ZM39.6069 19L34.5889 5.376H38.2029L41.6349 15.828L45.0929 5.376H48.3949L43.4029 19H39.6069Z" fill="#2196F3"/>
<path d="M62.3518 5.376C62.2305 5.25467 62.0052 5.09 61.6758 4.882C61.3638 4.674 60.9738 4.47467 60.5058 4.284C60.0552 4.09333 59.5612 3.92867 59.0238 3.79C58.4865 3.634 57.9405 3.556 57.3858 3.556C56.4152 3.556 55.6785 3.738 55.1758 4.102C54.6905 4.466 54.4478 4.97733 54.4478 5.636C54.4478 6.13867 54.6038 6.53733 54.9158 6.832C55.2278 7.12667 55.6958 7.378 56.3198 7.586C56.9438 7.794 57.7238 8.01933 58.6598 8.262C59.8732 8.55667 60.9218 8.92067 61.8058 9.354C62.7072 9.77 63.3918 10.3247 63.8598 11.018C64.3452 11.694 64.5878 12.5953 64.5878 13.722C64.5878 14.71 64.4058 15.5593 64.0418 16.27C63.6778 16.9633 63.1752 17.5267 62.5338 17.96C61.8925 18.3933 61.1645 18.714 60.3498 18.922C59.5352 19.1127 58.6685 19.208 57.7498 19.208C56.8312 19.208 55.9125 19.1127 54.9938 18.922C54.0752 18.7313 53.1912 18.4627 52.3418 18.116C51.4925 17.752 50.7125 17.3187 50.0018 16.816L51.5878 13.722C51.7438 13.878 52.0212 14.086 52.4198 14.346C52.8185 14.5887 53.3038 14.84 53.8758 15.1C54.4478 15.3427 55.0718 15.5507 55.7478 15.724C56.4238 15.8973 57.1085 15.984 57.8018 15.984C58.7725 15.984 59.5092 15.8193 60.0118 15.49C60.5145 15.1607 60.7658 14.6927 60.7658 14.086C60.7658 13.5313 60.5665 13.098 60.1678 12.786C59.7692 12.474 59.2145 12.2053 58.5038 11.98C57.7932 11.7373 56.9525 11.4773 55.9818 11.2C54.8205 10.8707 53.8498 10.5067 53.0698 10.108C52.2898 9.692 51.7092 9.172 51.3278 8.548C50.9465 7.924 50.7558 7.144 50.7558 6.208C50.7558 4.94267 51.0505 3.88533 51.6398 3.036C52.2465 2.16933 53.0612 1.51933 54.0838 1.086C55.1065 0.635333 56.2418 0.409999 57.4898 0.409999C58.3565 0.409999 59.1712 0.505332 59.9338 0.695999C60.7138 0.886666 61.4418 1.138 62.1178 1.45C62.7938 1.762 63.4005 2.1 63.9378 2.464L62.3518 5.376ZM75.6005 18.298C75.3058 18.4193 74.9505 18.558 74.5345 18.714C74.1185 18.87 73.6678 18.9913 73.1825 19.078C72.7145 19.182 72.2378 19.234 71.7525 19.234C71.1111 19.234 70.5218 19.1213 69.9845 18.896C69.4471 18.6707 69.0138 18.3153 68.6845 17.83C68.3725 17.3273 68.2165 16.6773 68.2165 15.88V8.054H66.4225V5.376H68.2165V0.956H71.7005V5.376H74.5605V8.054H71.7005V14.71C71.7178 15.178 71.8478 15.516 72.0905 15.724C72.3331 15.932 72.6365 16.036 73.0005 16.036C73.3645 16.036 73.7198 15.9753 74.0665 15.854C74.4131 15.7327 74.6905 15.6287 74.8985 15.542L75.6005 18.298ZM78.065 13.904V5.376H81.549V13.15C81.549 14.19 81.7397 14.9787 82.121 15.516C82.5023 16.036 83.0657 16.296 83.811 16.296C84.2617 16.296 84.7037 16.2093 85.137 16.036C85.5877 15.8453 85.995 15.568 86.359 15.204C86.7403 14.84 87.061 14.3807 87.321 13.826V5.376H90.805V15.1C90.805 15.464 90.8657 15.724 90.987 15.88C91.1257 16.036 91.3423 16.1313 91.637 16.166V19C91.2903 19.052 90.9957 19.0867 90.753 19.104C90.5277 19.1387 90.3197 19.156 90.129 19.156C89.505 19.156 88.9937 19.0173 88.595 18.74C88.2137 18.4453 87.9883 18.0467 87.919 17.544L87.841 16.452C87.2343 17.3707 86.4543 18.0727 85.501 18.558C84.5477 19.026 83.499 19.26 82.355 19.26C80.951 19.26 79.885 18.8093 79.157 17.908C78.429 16.9893 78.065 15.6547 78.065 13.904ZM94.2153 12.188C94.2153 10.8707 94.4753 9.68333 94.9953 8.626C95.5153 7.55133 96.2346 6.702 97.1533 6.078C98.0719 5.454 99.1206 5.142 100.299 5.142C101.305 5.142 102.206 5.39333 103.003 5.896C103.818 6.38133 104.451 7.00533 104.901 7.768V0.0199995H108.385V15.1C108.385 15.464 108.446 15.724 108.567 15.88C108.689 16.036 108.897 16.1313 109.191 16.166V19C108.585 19.1213 108.091 19.182 107.709 19.182C107.085 19.182 106.565 19.026 106.149 18.714C105.751 18.402 105.525 17.9947 105.473 17.492L105.421 16.634C104.919 17.4833 104.234 18.1333 103.367 18.584C102.518 19.0347 101.625 19.26 100.689 19.26C99.7533 19.26 98.8866 19.078 98.0893 18.714C97.3093 18.35 96.6246 17.8473 96.0353 17.206C95.4633 16.5647 95.0126 15.8193 94.6833 14.97C94.3713 14.1033 94.2153 13.176 94.2153 12.188ZM104.901 14.008V10.758C104.728 10.2553 104.451 9.80467 104.069 9.406C103.688 9.00733 103.263 8.69533 102.795 8.47C102.327 8.22733 101.859 8.106 101.391 8.106C100.854 8.106 100.369 8.21867 99.9353 8.444C99.5019 8.66933 99.1206 8.97267 98.7913 9.354C98.4793 9.73533 98.2366 10.1773 98.0633 10.68C97.9073 11.1827 97.8293 11.7113 97.8293 12.266C97.8293 12.8207 97.9159 13.3493 98.0893 13.852C98.2799 14.3373 98.5486 14.762 98.8953 15.126C99.2419 15.49 99.6406 15.776 100.091 15.984C100.559 16.192 101.062 16.296 101.599 16.296C101.929 16.296 102.258 16.244 102.587 16.14C102.934 16.0187 103.255 15.8627 103.549 15.672C103.861 15.464 104.13 15.2213 104.355 14.944C104.598 14.6493 104.78 14.3373 104.901 14.008ZM112.585 19V5.376H116.069V19H112.585ZM112.585 3.478V0.0199995H116.069V3.478H112.585ZM126.284 19.26C125.175 19.26 124.178 19.078 123.294 18.714C122.41 18.3327 121.656 17.8127 121.032 17.154C120.425 16.4953 119.957 15.7413 119.628 14.892C119.299 14.0427 119.134 13.15 119.134 12.214C119.134 11.2607 119.299 10.3593 119.628 9.51C119.957 8.66067 120.425 7.90667 121.032 7.248C121.656 6.58933 122.41 6.078 123.294 5.714C124.178 5.33267 125.175 5.142 126.284 5.142C127.393 5.142 128.381 5.33267 129.248 5.714C130.132 6.078 130.886 6.58933 131.51 7.248C132.134 7.90667 132.602 8.66067 132.914 9.51C133.243 10.3593 133.408 11.2607 133.408 12.214C133.408 13.15 133.243 14.0427 132.914 14.892C132.602 15.7413 132.134 16.4953 131.51 17.154C130.903 17.8127 130.158 18.3327 129.274 18.714C128.39 19.078 127.393 19.26 126.284 19.26ZM122.722 12.214C122.722 13.0113 122.878 13.722 123.19 14.346C123.502 14.9527 123.927 15.4293 124.464 15.776C125.001 16.1227 125.608 16.296 126.284 16.296C126.943 16.296 127.541 16.1227 128.078 15.776C128.615 15.412 129.04 14.9267 129.352 14.32C129.681 13.696 129.846 12.9853 129.846 12.188C129.846 11.408 129.681 10.706 129.352 10.082C129.04 9.458 128.615 8.97267 128.078 8.626C127.541 8.27933 126.943 8.106 126.284 8.106C125.608 8.106 125.001 8.288 124.464 8.652C123.927 8.99867 123.502 9.484 123.19 10.108C122.878 10.7147 122.722 11.4167 122.722 12.214Z" fill="black"/>
</svg>
